<svg xmlns="http://www.w3.org/2000/svg" viewBox="0 0 32 32">
  <!-- Background circle -->
  <circle cx="16" cy="16" r="16" fill="#0d1117"/>
  <!-- Accent ring -->
  <circle cx="16" cy="16" r="16" fill="none" stroke="#00A3E0" stroke-width="2"/>

  <!-- Trophy cup body -->
  <path d="M10 7 h12 l-2 9 a5 5 0 0 1-8 0 Z" fill="#00A3E0"/>
  <!-- Trophy stem -->
  <rect x="14.5" y="16" width="3" height="4" fill="#00A3E0"/>
  <!-- Trophy base -->
  <rect x="11" y="20" width="10" height="2" rx="1" fill="#00A3E0"/>
  <!-- Trophy handles -->
  <path d="M10 8 Q6 8 6 12 Q6 15 10 15" fill="none" stroke="#00A3E0" stroke-width="1.5" stroke-linecap="round"/>
  <path d="M22 8 Q26 8 26 12 Q26 15 22 15" fill="none" stroke="#00A3E0" stroke-width="1.5" stroke-linecap="round"/>

  <!-- Highlight star on cup -->
  <polygon points="16,9 16.6,11 18.5,11 17,12.2 17.6,14.1 16,13 14.4,14.1 15,12.2 13.5,11 15.4,11" fill="#ffffff" opacity="0.85"/>
</svg>
